# xmcd
#
# Track frame offsets: 
#        150
#        16328
#        28426
#        45887
#        61312
#        78929
#
# Disc length: 1275 seconds
#
# Revision: 0
# Processed by: cddbd v1.5.2PL0 Copyright (c) Steve Scherf et al.
# Submitted via: ExactAudioCopyFreeDBPlugin 1.0
#
DISCID=3f04f906
DTITLE=Nakia - Drown In The Crimson Tide
DYEAR=2013
DGENRE=Soul
TTITLE0=Tight
TTITLE1=Make Up With A Gun
TTITLE2=Dream Big
TTITLE3=Pieces And Castles
TTITLE4=When I Found You
TTITLE5=Walking On A Slant
EXTD=
EXTT0=
EXTT1=
EXTT2=
EXTT3=
EXTT4=
EXTT5=
PLAYORDER=
